<svg width="230" height="39" viewBox="0 0 230 39" fill="none" xmlns="http://www.w3.org/2000/svg">
<g clip-path="url(#clip0_28_32)">
<path fill-rule="evenodd" clip-rule="evenodd" d="M53.8137 11.0772C56.6522 11.0772 58.998 12.0174 60.8512 13.8977C62.7015 15.7783 63.6275 18.3766 63.6294 21.6926V37.4347H56.9299V22.512C56.9299 20.8028 56.4621 19.4952 55.5264 18.589C54.5909 17.6829 53.344 17.23 51.7858 17.2302C50.0558 17.2302 48.6704 17.7601 47.6297 18.82C46.5929 19.8802 46.0734 21.47 46.0715 23.5892V37.4352H39.372V11.795H46.0715V14.6682C47.7014 12.2753 50.282 11.0783 53.8137 11.0772ZM72.9268 0V37.4361H66.2273V0H72.9268ZM79.2626 8.71809C78.1795 8.70067 77.1458 8.26811 76.3803 7.51195C75.6148 6.75578 75.1775 5.73537 75.161 4.66668C75.1583 4.13164 75.2649 3.60157 75.4746 3.10814C75.6841 2.61472 75.9926 2.16807 76.3813 1.79495C76.7488 1.40395 77.1947 1.0927 77.6908 0.880991C78.1868 0.669287 78.7222 0.561759 79.2626 0.565247C79.8117 0.558338 80.3563 0.664192 80.8617 0.876083C81.3672 1.08798 81.8223 1.40128 82.1985 1.79607C82.5871 2.16921 82.8955 2.61584 83.105 3.10927C83.3147 3.60269 83.4213 4.13278 83.4186 4.66782C83.4231 5.19926 83.3169 5.72596 83.1071 6.21545C82.8972 6.70493 82.5881 7.1468 82.1985 7.51383C81.8185 7.90195 81.3619 8.20906 80.8571 8.41625C80.352 8.62341 79.8094 8.72625 79.2626 8.71837V8.71809ZM75.9401 37.4358V11.795H82.6396V37.4361H75.9401V37.4358ZM100.092 11.0769C102.933 11.0769 105.28 12.0171 107.132 13.8974C108.984 15.7778 109.91 18.3762 109.91 21.6923V37.4344H103.208V22.5119C103.208 20.8026 102.741 19.4949 101.807 18.5886C100.871 17.6832 99.6246 17.2302 98.0664 17.2299C96.3335 17.2299 94.9483 17.7598 93.9104 18.8197C92.8726 19.8795 92.3532 21.4692 92.3523 23.5889V37.435H85.6528V11.795H92.3523V14.6682C93.9791 12.2753 96.5589 11.0783 100.092 11.0772V11.0769ZM118.168 27.3328C119.07 30.5468 121.511 32.1538 125.492 32.1535C128.055 32.1535 129.994 31.2987 131.309 29.5893L136.711 32.6666C134.15 36.3249 130.376 38.1542 125.389 38.1542C121.095 38.1542 117.649 36.8722 115.052 34.308C112.454 31.7438 111.155 28.5131 111.156 24.6157C111.156 20.7531 112.437 17.5313 115 14.9499C117.563 12.3686 120.853 11.078 124.87 11.078C128.677 11.078 131.819 12.3771 134.297 14.9754C136.774 17.5737 138.012 20.7873 138.011 24.6162C138.005 25.528 137.918 26.4373 137.751 27.334H118.168V27.3328ZM118.065 22.2049H131.309C130.927 20.4613 130.139 19.1621 128.946 18.3075C127.764 17.4567 126.333 17.007 124.87 17.0255C123.069 17.0255 121.579 17.4786 120.402 18.3844C119.19 19.3457 118.362 20.6993 118.065 22.2052V22.2049ZM162.475 1.53832H165.903V37.4361H162.475V32.4102C160.086 36.1716 156.589 38.0518 151.983 38.0514C150.216 38.0787 148.463 37.7468 146.832 37.0764C145.201 36.4057 143.727 35.4111 142.503 34.154C139.888 31.5561 138.58 28.3766 138.581 24.6154C138.582 20.8542 139.889 17.6748 142.503 15.0771C143.727 13.8202 145.201 12.8255 146.832 12.155C148.463 11.4845 150.216 11.1525 151.983 11.1798C156.589 11.1798 160.086 13.06 162.475 16.8207V1.5386V1.53832ZM144.972 31.8206C146.907 33.7096 149.52 34.7691 152.243 34.7691C154.965 34.7691 157.578 33.7096 159.514 31.8206C161.412 29.8902 162.475 27.3058 162.475 24.6154C162.475 21.925 161.412 19.3406 159.514 17.4102C157.578 15.5212 154.965 14.4617 152.243 14.4617C149.52 14.4617 146.907 15.5212 144.972 17.4102C143.072 19.3406 142.01 21.9252 142.01 24.6156C142.01 27.3059 143.072 29.8905 144.972 31.8209V31.8206ZM192.393 11.7947H195.82V37.4358H192.393V32.4102C190.004 36.1716 186.506 38.0518 181.9 38.0514C180.134 38.079 178.382 37.7472 176.749 37.0767C175.119 36.406 173.647 35.4112 172.422 34.154C169.807 31.5561 168.498 28.3766 168.498 24.6154C168.498 20.8542 169.807 17.6748 172.422 15.0771C173.647 13.82 175.119 12.8252 176.751 12.1546C178.382 11.4841 180.134 11.1522 181.9 11.1798C186.506 11.1798 190.004 13.06 192.393 16.8207V11.795V11.7947ZM174.889 31.8206C176.826 33.7096 179.438 34.769 182.162 34.769C184.884 34.769 187.498 33.7096 189.433 31.8206C191.331 29.8894 192.393 27.3053 192.393 24.6154C192.393 21.9255 191.331 19.3413 189.433 17.4102C187.498 15.521 184.884 14.4615 182.162 14.4615C179.438 14.4615 176.826 15.521 174.889 17.4102C172.99 19.3406 171.927 21.9252 171.927 24.6156C171.927 27.3059 172.99 29.8905 174.889 31.8209V31.8206ZM203.406 16.0502C204.998 12.9398 207.733 11.3843 211.611 11.3835V14.6682C209.257 14.6682 207.301 15.3519 205.742 16.7195C204.184 18.087 203.406 20.2408 203.406 23.1808V37.4375H199.976V11.795H203.406V16.0513V16.0502ZM214.834 18.5119C214.825 19.0677 214.964 19.6164 215.237 20.1025C215.51 20.5886 215.908 20.9953 216.392 21.2815C217.555 22.0188 218.836 22.5564 220.181 22.8713C221.671 23.2482 223.16 23.6671 224.65 24.1279C226.093 24.5622 227.4 25.357 228.442 26.4354C229.481 27.5123 230.002 28.9226 230 30.6662C230.024 31.6967 229.797 32.718 229.342 33.6455C228.885 34.5729 228.211 35.3799 227.376 35.9995C225.627 37.3675 223.368 38.0512 220.6 38.0507C218.105 38.0507 215.983 37.5038 214.235 36.4099C212.577 35.4232 211.291 33.9283 210.575 32.1533L213.481 30.4609C213.956 31.7827 214.883 32.8987 216.105 33.6147C217.464 34.4091 219.022 34.8091 220.6 34.7687C222.296 34.7687 223.715 34.4354 224.859 33.769C226.003 33.1026 226.574 32.0683 226.572 30.6662C226.58 30.1102 226.441 29.5618 226.168 29.0757C225.893 28.5897 225.497 28.183 225.013 27.8964C223.849 27.1601 222.567 26.6226 221.22 26.3069C219.731 25.9314 218.243 25.5127 216.755 25.0506C215.312 24.617 214.005 23.822 212.963 22.7431C211.924 21.6659 211.405 20.2555 211.405 18.5122C211.394 17.5088 211.614 16.5162 212.05 15.61C212.487 14.7038 213.128 13.9079 213.922 13.2833C215.604 11.8821 217.726 11.1813 220.288 11.1809C222.236 11.1389 224.158 11.6269 225.844 12.5912C227.389 13.4796 228.62 14.8126 229.375 16.4117L226.52 18.0526C225.514 15.6597 223.436 14.4633 220.288 14.4633C218.928 14.4269 217.59 14.793 216.443 15.5143C215.932 15.8301 215.513 16.2736 215.231 16.7998C214.948 17.3261 214.81 17.9166 214.834 18.5119Z" fill="white"/>
<path fill-rule="evenodd" clip-rule="evenodd" d="M83.6621 4.9036C83.6624 5.7667 83.4032 6.6105 82.9174 7.32826C82.4317 8.04602 81.741 8.60549 80.9329 8.93595C80.1249 9.2664 79.2356 9.35298 78.3777 9.18474C77.5197 9.01649 76.7316 8.60097 76.113 7.99074C75.4944 7.3805 75.0731 6.60297 74.9024 5.75647C74.7316 4.90996 74.8192 4.03249 75.1538 3.23507C75.4885 2.43764 76.0553 1.75605 76.7826 1.27651C77.51 0.796971 78.365 0.541016 79.2398 0.541016C79.8205 0.540905 80.3955 0.653666 80.9321 0.872854C81.4685 1.09204 81.956 1.41336 82.3666 1.81848C82.7773 2.22358 83.1031 2.70454 83.3254 3.2339C83.5477 3.76324 83.6621 4.33061 83.6621 4.9036Z" fill="#EC5252"/>
<path fill-rule="evenodd" clip-rule="evenodd" d="M32.2565 32.744C28.5857 36.351 24.1186 38.1546 18.8554 38.1546C13.5923 38.1546 9.13355 36.3512 5.47933 32.7443C1.82644 29.1376 0 24.7188 0 19.4876C0 14.2564 1.82664 9.83807 5.4799 6.23253C9.13298 2.62588 13.5917 0.822454 18.856 0.822266C24.1203 0.822077 28.5873 2.6255 32.2569 6.23253C35.9273 9.83994 37.7625 14.2583 37.763 19.4876C37.7633 24.7169 35.9279 29.1357 32.2565 32.744ZM11.4722 25.8306C12.0184 29.1716 16.1527 33.0674 19.477 33.0674C22.8012 33.0674 26.6917 31.1559 27.7834 28.2628C28.8225 25.5083 29.1456 24.1082 27.8865 20.3629C26.8891 17.3953 26.7212 13.9267 25.4919 10.7401C24.3579 7.8042 21.9093 6.3942 18.6176 5.93549C15.1602 5.45504 12.6709 6.04855 10.5978 9.89223C9.10175 12.6651 9.38589 10.5705 9.45205 15.5447C9.46036 16.1753 10.6227 20.6359 11.4722 25.8306Z" fill="#EC5252"/>
<path fill-rule="evenodd" clip-rule="evenodd" d="M15.6016 5.63705C13.2751 6.17069 11.2588 7.59438 9.9961 9.59494C8.73342 11.5955 8.32786 14.0091 8.86861 16.3047L11.3551 26.7449C11.9116 29.0326 13.3628 31.0102 15.3919 32.246C17.4208 33.4819 19.863 33.8755 22.1852 33.3409C24.5072 32.8062 26.5207 31.3869 27.7861 29.3928C29.0514 27.3985 29.4657 24.9914 28.9388 22.6968L26.4521 12.2567C25.898 9.9619 24.4452 7.97709 22.4118 6.73652C20.3783 5.49594 17.9297 5.10063 15.6016 5.63705ZM25.3974 12.4991L25.4298 12.6356C23.4262 14.3382 21.0502 15.56 18.4882 16.2052L17.8007 13.3151C18.1502 13.1517 18.4324 12.8754 18.6005 12.5319C18.7686 12.1884 18.8126 11.7984 18.725 11.4269L18.2095 9.25999C18.1199 8.88843 17.9045 8.55816 17.5988 8.32383C17.2931 8.08949 16.9155 7.9651 16.5284 7.97123L16.202 6.6005C18.209 6.23186 20.283 6.63857 21.9947 7.73648C23.7065 8.83441 24.925 10.5395 25.3982 12.4991H25.3974ZM16.3325 8.70521C16.5844 8.64704 16.8495 8.6897 17.0695 8.82388C17.2897 8.95804 17.4468 9.17279 17.507 9.42109L18.0225 11.588C18.0778 11.8356 18.032 12.0947 17.8951 12.3092C17.7581 12.5238 17.5409 12.6764 17.2908 12.734C17.0405 12.7916 16.7773 12.7496 16.5583 12.6171C16.3392 12.4846 16.1818 12.2722 16.1203 12.026L15.6048 9.85916C15.5758 9.73623 15.5716 9.60887 15.5924 9.48435C15.6133 9.35982 15.6588 9.24057 15.7264 9.13341C15.794 9.02626 15.8824 8.93328 15.9863 8.85982C16.0903 8.78634 16.208 8.7338 16.3325 8.70521ZM15.4991 6.7616L15.8253 8.13261C15.4761 8.29608 15.194 8.57251 15.026 8.91598C14.858 9.25946 14.8141 9.64932 14.9016 10.0208L15.4172 12.1877C15.5068 12.5591 15.7222 12.8893 16.0277 13.1236C16.3333 13.3579 16.7107 13.4823 17.0976 13.4762L17.785 16.3663C15.1962 16.9061 12.5159 16.8481 9.95358 16.1968L9.92122 16.0604C9.45981 14.1002 9.78208 12.0398 10.821 10.3079C11.8599 8.57609 13.5354 7.30609 15.4991 6.76217V6.7616ZM21.9588 32.3278C19.9098 32.7998 17.7547 32.4518 15.965 31.36C14.1753 30.2681 12.8968 28.5212 12.4091 26.5015L10.1395 16.9744C12.8229 17.5972 15.6157 17.5995 18.3002 16.9816C20.9847 16.3637 23.4882 15.142 25.6153 13.412L27.8844 22.9392C28.3604 24.9598 28.0035 27.0838 26.8922 28.8446C25.7809 30.6054 24.0064 31.8585 21.9588 32.3283V32.3278Z" fill="#EC5252"/>
</g>
<defs>
<clipPath id="clip0_28_32">
<rect width="230" height="39" fill="white"/>
</clipPath>
</defs>
</svg>
