<svg width="32" height="32" viewBox="0 0 32 32" fill="none" xmlns="http://www.w3.org/2000/svg">
<path fill-rule="evenodd" clip-rule="evenodd" d="M26.3334 16C26.3334 15.4477 25.8857 15 25.3334 15H6.66675C6.11447 15 5.66675 15.4477 5.66675 16C5.66675 16.5523 6.11447 17 6.66675 17H25.3334C25.8857 17 26.3334 16.5523 26.3334 16Z" fill="black"/>
<path fill-rule="evenodd" clip-rule="evenodd" d="M26.3334 9.33333C26.3334 8.78105 25.8857 8.33333 25.3334 8.33333H6.66675C6.11447 8.33333 5.66675 8.78105 5.66675 9.33333C5.66675 9.88561 6.11447 10.3333 6.66675 10.3333H25.3334C25.8857 10.3333 26.3334 9.88561 26.3334 9.33333Z" fill="black"/>
<path fill-rule="evenodd" clip-rule="evenodd" d="M26.3334 22.6667C26.3334 22.1144 25.8857 21.6667 25.3334 21.6667H6.66675C6.11447 21.6667 5.66675 22.1144 5.66675 22.6667C5.66675 23.2189 6.11447 23.6667 6.66675 23.6667H25.3334C25.8857 23.6667 26.3334 23.2189 26.3334 22.6667Z" fill="black"/>
</svg>
