<svg width="24" height="25" viewBox="0 0 24 25" fill="none" xmlns="http://www.w3.org/2000/svg">
<path fill-rule="evenodd" clip-rule="evenodd" d="M5.84028 10.3562C7.6276 14.248 10.8081 17.3422 14.7618 19.0188L14.7743 19.0241L15.5381 19.3645C16.5108 19.7979 17.654 19.4901 18.2776 18.627L19.552 16.8633C19.6298 16.7556 19.6097 16.6058 19.5063 16.5223L17.2816 14.7275C17.171 14.6383 17.0083 14.6591 16.9237 14.7732L16.0579 15.9416C15.8476 16.2254 15.4678 16.324 15.1461 16.1784C12.1897 14.8404 9.81397 12.4647 8.47604 9.50833C8.33042 9.18656 8.42902 8.80681 8.71277 8.59653L9.88115 7.73067C9.99532 7.64606 10.0161 7.48344 9.92687 7.37284L8.13183 5.1478C8.0484 5.04438 7.89866 5.0243 7.79093 5.10207L6.01763 6.38223C5.14884 7.00942 4.84289 8.16226 5.28635 9.13771L5.83969 10.3549C5.83989 10.3553 5.84009 10.3557 5.84028 10.3562ZM14.1699 20.3971C9.87392 18.5735 6.41855 15.2105 4.47651 10.9807L4.47534 10.9782L3.92084 9.7585C3.18174 8.13275 3.69166 6.21134 5.13965 5.16603L6.91294 3.88587C7.66706 3.34146 8.71529 3.48207 9.29928 4.20596L11.0943 6.43101C11.7189 7.20518 11.5734 8.34357 10.7742 8.93581L10.1047 9.43197C11.2357 11.6263 13.028 13.4187 15.2224 14.5496L15.7186 13.8801C16.3108 13.081 17.4492 12.9355 18.2234 13.5601L20.4481 15.3548C21.1722 15.939 21.3127 16.9877 20.7678 17.7418L19.4934 19.5055C18.4541 20.944 16.5487 21.457 14.9277 20.7347L14.1699 20.3971Z" fill="white"/>
</svg>
